HIERARCHY
ROOT Hips
{
 OFFSET 0.000000 0.000000 0.000000
 CHANNELS 6 Xposition Yposition Zposition Yrotation Xrotation Zrotation
 JOINT Chest
 {
  OFFSET 0.000000 9.303000 0.001900
  CHANNELS 3 Yrotation Xrotation Zrotation
  JOINT Chest2
  {
   OFFSET 0.000000 9.301100 -0.003900
   CHANNELS 3 Yrotation Xrotation Zrotation
   JOINT Chest3
   {
    OFFSET 0.000000 9.262800 0.000000
    CHANNELS 3 Yrotation Xrotation Zrotation
    JOINT Chest4
    {
     OFFSET 0.000000 9.253300 0.000000
     CHANNELS 3 Yrotation Xrotation Zrotation
     JOINT Neck
     {
      OFFSET 0.000000 14.010300 0.000000
      CHANNELS 3 Yrotation Xrotation Zrotation
      JOINT Head
      {
       OFFSET 0.000000 8.657600 -0.008300
       CHANNELS 3 Yrotation Xrotation Zrotation
       End Site
       {
        OFFSET 0.000000 16.540200 -0.004400
       }
      }
     }
     JOINT RightCollar
     {
      OFFSET -2.834100 9.267700 0.000000
      CHANNELS 3 Yrotation Xrotation Zrotation
      JOINT RightShoulder
      {
       OFFSET -13.135200 0.000000 0.000000
       CHANNELS 3 Yrotation Xrotation Zrotation
       JOINT RightElbow
       {
        OFFSET 0.000000 -28.893500 0.000000
        CHANNELS 3 Yrotation Xrotation Zrotation
        JOINT RightWrist
        {
         OFFSET 0.000000 -23.344000 0.000000
         CHANNELS 3 Yrotation Xrotation Zrotation
         End Site
         {
          OFFSET 0.000000 -17.223000 0.000000
         }
        }
       }
      }
     }
     JOINT LeftCollar
     {
      OFFSET 2.834100 9.267700 0.000000
      CHANNELS 3 Yrotation Xrotation Zrotation
      JOINT LeftShoulder
      {
       OFFSET 13.135200 0.000000 0.000000
       CHANNELS 3 Yrotation Xrotation Zrotation
       JOINT LeftElbow
       {
        OFFSET 0.000000 -28.893500 0.000000
        CHANNELS 3 Yrotation Xrotation Zrotation
        JOINT LeftWrist
        {
         OFFSET 0.000000 -23.344000 0.000000
         CHANNELS 3 Yrotation Xrotation Zrotation
         End Site
         {
          OFFSET 0.000000 -17.223000 0.000000
         }
        }
       }
      }
     }
    }
   }
  }
 }
 JOINT RightHip
 {
  OFFSET -7.547200 -0.009500 -0.001000
  CHANNELS 3 Yrotation Xrotation Zrotation
  JOINT RightKnee
  {
   OFFSET 0.000000 -39.762800 0.000900
   CHANNELS 3 Yrotation Xrotation Zrotation
   JOINT RightAnkle
   {
    OFFSET 0.000000 -38.588200 0.001600
    CHANNELS 3 Yrotation Xrotation Zrotation
    JOINT RightToe
    {
     OFFSET 0.000000 -4.693300 10.419700
     CHANNELS 3 Yrotation Xrotation Zrotation
     End Site
     {
      OFFSET 0.000000 -1.379900 5.669300
     }
    }
   }
  }
 }
 JOINT LeftHip
 {
  OFFSET 7.547200 -0.009500 -0.001000
  CHANNELS 3 Yrotation Xrotation Zrotation
  JOINT LeftKnee
  {
   OFFSET 0.000000 -39.762800 0.000900
   CHANNELS 3 Yrotation Xrotation Zrotation
   JOINT LeftAnkle
   {
    OFFSET 0.000000 -38.588200 0.001600
    CHANNELS 3 Yrotation Xrotation Zrotation
    JOINT LeftToe
    {
     OFFSET 0.000000 -4.693300 10.419700
     CHANNELS 3 Yrotation Xrotation Zrotation
     End Site
     {
      OFFSET 0.000000 -1.379900 5.669300
     }
    }
   }
  }
 }
}
MOTION
Frames: 15
Frame Time: 0.008333
0.000000 82.880600 0.000000 0.000000 -5.767877 0.000000 0.000000 11.653817 0.000000 0.000000 -5.885947 0.000000 0.000000 -0.000000 0.000000 0.000000 -0.000000 0.000000 0.000000 12.528835 0.000000 0.000000 0.711642 0.000000 0.000000 -0.000000 0.000000 0.000000 0.000000 -90.000000 0.000000 -2.309062 0.000000 0.000000 2.309062 0.000000 0.000000 -0.000000 0.000000 0.000000 -0.000000 90.000000 0.000000 -2.309062 0.000000 0.000000 2.309062 0.000000 0.000000 8.520406 0.000000 0.000000 1.905762 0.000000 -0.000000 -4.658285 0.000000 0.000000 -0.000000 0.000000 0.000000 8.520406 0.000000 0.000000 1.905762 0.000000 -0.000000 -4.658285 0.000000 0.000000 -0.000000 0.000000
1.730439 45.774018 9.360816 170.681308 -11.151426 0.183800 0.065325 8.193844 0.357104 0.002177 0.403145 0.033387 0.002499 0.706272 0.059963 0.084206 7.713867 0.643749 -1.165744 22.102282 0.454002 -1.368161 -2.120687 0.756931 2.927076 5.408460 -5.066295 -4.427593 -5.869961 -2.717383 105.886643 -88.357317 -87.742521 -6.888571 -3.619445 -24.523562 -8.431117 3.199949 -2.633631 13.271536 -6.182197 7.031206 47.397376 -63.803358 -75.490676 6.061341 3.715335 12.970656 -19.335651 -77.287428 9.618224 -135.637168 83.275838 -137.695377 -11.185363 -9.961018 0.127092 0.089042 -0.283137 0.045400 -6.446780 -75.757227 21.506329 90.316863 76.597111 88.945767 -11.139161 -7.775385 0.187076 0.105312 0.437541 0.049559
1.731069 45.773388 9.363105 170.675516 -11.134776 0.170361 0.072992 8.175985 0.371028 0.000424 0.401469 0.032262 0.007119 0.706246 0.059828 0.082502 7.713761 0.645487 -1.159173 22.108940 0.454892 -1.360658 -2.110396 0.755087 2.931949 5.405427 -5.067931 -4.418676 -5.893356 -2.708907 104.610194 -88.364211 -86.479979 -6.884810 -3.621338 -24.517399 -8.432525 3.196031 -2.629552 13.273028 -6.182334 7.028506 47.408445 -63.809672 -75.496449 6.062524 3.722014 12.965969 -19.396126 -77.299309 9.673116 -135.751503 83.281666 -137.819474 -10.920276 -9.956681 0.095951 0.124583 -0.286671 0.052723 -6.502024 -75.777407 21.566039 90.328732 76.601982 88.953434 -11.114122 -7.770453 0.202604 0.084335 0.434177 0.038517
1.726808 45.773923 9.359211 170.690938 -11.149714 0.188961 0.053212 8.189669 0.348630 -0.002663 0.400175 0.030200 0.009431 0.706548 0.061681 0.078669 7.713587 0.643789 -1.150182 22.112773 0.456657 -1.328300 -2.081069 0.747102 2.939802 5.399453 -5.069469 -4.411897 -5.898954 -2.703521 103.841575 -88.367527 -85.713484 -6.886588 -3.623572 -24.505934 -8.428261 3.193556 -2.624410 13.279186 -6.200782 7.024426 47.398669 -63.810886 -75.490813 6.068445 3.733612 12.966892 -19.290494 -77.293428 9.562333 -135.646491 83.271475 -137.699206 -10.953689 -9.956523 0.104279 0.079435 -0.286390 0.035826 -6.426871 -75.767796 21.470307 90.341251 76.601432 88.966721 -11.119740 -7.756402 0.201761 0.089841 0.419258 0.040641
1.722750 45.774705 9.355198 170.707166 -11.162946 0.207725 0.029421 8.198644 0.321811 -0.003117 0.405169 0.032556 0.009663 0.701567 0.059385 0.074233 7.718414 0.645632 -1.135282 22.118007 0.456510 -1.313390 -2.066452 0.744466 2.952278 5.387708 -5.065209 -4.405970 -5.897413 -2.707116 103.152218 -88.371688 -85.010463 -6.882446 -3.625344 -24.514847 -8.414363 3.182514 -2.617706 13.274583 -6.200477 7.019999 47.387940 -63.809887 -75.478298 6.054312 3.721911 12.959369 -19.188649 -77.288223 9.455731 -135.533261 83.262208 -137.569958 -11.001196 -9.956898 0.113577 0.032516 -0.285258 0.017829 -6.350749 -75.755236 21.373832 90.331101 76.606070 88.958596 -11.128221 -7.750670 0.194450 0.100708 0.412708 0.046830
1.725618 45.775214 9.355473 170.692778 -11.152817 0.188519 0.040840 8.189292 0.342166 -0.002763 0.411013 0.032965 0.008286 0.695580 0.058558 0.071754 7.725125 0.647104 -1.118307 22.137673 0.454543 -1.310944 -2.082038 0.745710 2.965579 5.370436 -5.062746 -4.393925 -5.896994 -2.713527 102.588485 -88.376551 -84.452602 -6.896035 -3.616233 -24.489178 -8.403116 3.173254 -2.617925 13.270423 -6.209592 7.019894 47.377683 -63.816245 -75.471719 6.059762 3.722871 12.967846 -19.282957 -77.287897 9.557132 -135.575133 83.265534 -137.625845 -10.754795 -9.952876 0.085632 0.062566 -0.288007 0.024479 -6.430246 -75.760528 21.470468 90.338677 76.604194 88.968558 -11.130187 -7.764154 0.190832 0.098373 0.421645 0.046473
1.728631 45.776012 9.357153 170.681818 -11.129304 0.169431 0.051609 8.171634 0.362693 -0.007856 0.417842 0.032539 0.013158 0.688917 0.059471 0.062947 7.734474 0.646381 -1.104937 22.148258 0.453196 -1.303593 -2.094791 0.744615 2.981228 5.349968 -5.062800 -4.375817 -5.903066 -2.717096 101.681930 -88.381375 -83.545484 -6.908745 -3.617266 -24.494012 -8.392202 3.144190 -2.617473 13.268983 -6.206971 7.022335 47.361628 -63.812157 -75.452551 6.055514 3.723305 12.967022 -19.400155 -77.298802 9.681537 -135.583437 83.270694 -137.645837 -10.534126 -9.949080 0.057159 0.092079 -0.288301 0.032910 -6.514770 -75.779810 21.570115 90.330710 76.601933 88.961282 -11.134328 -7.771142 0.189557 0.101289 0.428390 0.045851
1.728855 45.778085 9.355913 170.683032 -11.115003 0.170963 0.041102 8.170995 0.358842 -0.003820 0.411970 0.032670 -0.002710 0.715192 0.057728 0.076817 7.710120 0.647403 -1.098094 22.175160 0.451634 -1.271289 -2.037808 0.733980 2.999745 5.331064 -5.060087 -4.366297 -5.902774 -2.719663 99.571431 -88.406026 -81.424389 -6.898523 -3.643456 -24.503760 -8.389633 3.123694 -2.620373 13.269721 -6.207612 7.023924 47.348483 -63.817122 -75.437565 6.060078 3.728918 12.970522 -19.414947 -77.307643 9.704310 -135.464854 83.269310 -137.519329 -10.498930 -9.948481 0.048968 0.080279 -0.285258 0.028830 -6.515041 -75.793241 21.569693 90.323888 76.599025 88.954947 -11.138531 -7.764336 0.187364 0.106493 0.421779 0.047265
1.730945 45.781374 9.354209 170.683356 -11.098114 0.164466 0.021950 8.196782 0.359707 0.010613 0.378006 0.034561 -0.007611 0.732307 0.057233 0.079529 7.695504 0.646913 -1.090277 22.213917 0.449670 -1.251913 -2.016229 0.728808 3.012876 5.313773 -5.064724 -4.347726 -5.905445 -2.713808 97.322111 -88.428709 -79.174367 -6.897728 -3.657399 -24.506296 -8.389678 3.100247 -2.626320 13.275000 -6.202617 7.030963 47.295287 -63.815830 -75.396060 6.062199 3.712032 12.976427 -19.463425 -77.317207 9.754856 -135.440361 83.270113 -137.493769 -10.397664 -9.943173 0.035475 0.084286 -0.290525 0.029149 -6.555247 -75.809816 21.611839 90.328879 76.599795 88.959066 -11.135067 -7.753317 0.185084 0.103494 0.410477 0.048391
1.733536 45.785744 9.354115 170.678341 -11.063221 0.156314 0.019913 8.192378 0.367387 0.008923 0.372086 0.033869 -0.007212 0.740637 0.057772 0.052437 7.736896 0.641064 -1.051681 22.168826 0.450629 -1.227693 -1.951903 0.717733 3.080910 5.220693 -5.091630 -4.366060 -5.886377 -2.687963 95.002389 -88.450119 -76.842999 -6.903852 -3.660303 -24.505409 -8.375481 3.011922 -2.631014 13.295608 -6.198111 7.045725 47.236130 -63.811218 -75.343315 6.068577 3.696050 12.972370 -19.538405 -77.343317 9.832842 -135.455216 83.274632 -137.513687 -10.244739 -9.935599 0.015953 0.105740 -0.297457 0.036091 -6.612124 -75.840113 21.672952 90.320400 76.597757 88.947480 -11.126611 -7.747129 0.188380 0.095476 0.404535 0.043163
1.733715 45.792262 9.351627 170.688375 -11.031198 0.163602 0.002223 8.185644 0.358049 0.002724 0.397192 0.032698 -0.004302 0.728358 0.060035 0.052363 7.721240 0.638028 -1.037736 22.241549 0.444945 -1.201717 -1.930650 0.706960 3.102873 5.190038 -5.102125 -4.335548 -5.887696 -2.677293 91.502397 -88.467758 -73.353566 -6.907248 -3.666449 -24.504034 -8.424293 2.919216 -2.681453 13.327753 -6.156740 7.107375 47.197464 -63.802728 -75.285246 6.060639 3.719751 12.968085 -19.538183 -77.370739 9.830816 -135.372916 83.270888 -137.430572 -10.218467 -9.929904 0.020206 0.141757 -0.303762 0.033770 -6.603712 -75.868787 21.648662 90.302541 76.587461 88.928354 -11.125589 -7.733114 0.188107 0.090054 0.389110 0.040617
1.734960 45.800301 9.352239 170.689002 -10.970745 0.163964 -0.007438 8.165818 0.360446 0.006887 0.374482 0.029738 -0.010067 0.752668 0.062871 0.051917 7.702392 0.634074 -1.023521 22.329161 0.435436 -1.174701 -1.898879 0.690933 3.129903 5.156501 -5.115206 -4.297151 -5.888486 -2.665634 86.893484 -88.476180 -68.758836 -6.908174 -3.674745 -24.503275 -8.464419 2.821286 -2.726810 13.289806 -6.124453 7.164351 47.170655 -63.785055 -75.174230 6.053137 3.734746 12.965350 -19.626883 -77.419911 9.926556 -135.295142 83.274925 -137.357060 -10.199727 -9.919706 0.021086 0.103379 -0.310941 0.034801 -6.627035 -75.925476 21.668433 90.284631 76.590520 88.913556 -11.118954 -7.720697 0.181986 0.087256 0.375338 0.041980
1.739090 45.810935 9.351893 170.671006 -10.908370 0.152076 -0.000017 8.156631 0.379269 0.011644 0.363556 0.029562 -0.007896 0.732558 0.060090 0.036615 7.728616 0.634201 -1.003703 22.383274 0.417934 -1.147319 -1.827323 0.668827 3.214662 5.024664 -5.187230 -4.319239 -5.803256 -2.603627 81.528857 -88.467959 -63.383035 -6.908299 -3.683475 -24.506359 -8.493053 2.691179 -2.770253 13.272338 -6.085626 7.227647 47.063881 -63.766395 -75.012281 6.041052 3.737917 12.972161 -19.778372 -77.463603 10.091202 -135.276920 83.284818 -137.355650 -10.091810 -9.901834 0.008872 0.135823 -0.327136 0.048606 -6.691331 -75.981246 21.750418 90.284359 76.591022 88.915119 -11.107732 -7.712131 0.182469 0.074139 0.359595 0.037053
1.742391 45.824256 9.350136 170.647716 -10.843033 0.148801 0.013839 8.130208 0.387318 0.008872 0.369470 0.031959 -0.001841 0.710382 0.057896 0.019388 7.752617 0.634259 -0.981943 22.444717 0.391912 -1.119348 -1.727477 0.644053 3.256339 4.952495 -5.216251 -4.322388 -5.776858 -2.583999 75.605822 -88.432429 -57.413413 -6.906470 -3.696946 -24.509445 -8.524171 2.542445 -2.819133 13.240579 -6.039913 7.306524 46.776190 -63.767369 -74.665217 6.053631 3.699427 12.978838 -19.959666 -77.496289 10.280345 -135.188214 83.302590 -137.298510 -9.996816 -9.910830 0.000334 0.175434 -0.319858 0.061848 -6.713090 -76.027188 21.786197 90.256085 76.578853 88.883974 -11.087645 -7.728868 0.186919 0.051220 0.363510 0.026898
1.741258 45.840259 9.345828 170.645875 -10.778266 0.172837 0.005840 8.095860 0.362025 -0.002096 0.402643 0.032215 0.003467 0.683152 0.059254 0.008838 7.740664 0.628484 -0.957918 22.529301 0.364680 -1.091229 -1.597655 0.618960 3.328203 4.830385 -5.286520 -4.235169 -5.718200 -2.524560 67.269987 -88.334657 -49.139569 -6.901358 -3.717571 -24.503755 -8.558680 2.392033 -2.867982 13.190063 -5.984067 7.405639 46.509771 -63.770829 -74.319438 6.064625 3.677614 12.988115 -19.994294 -77.544480 10.323430 -134.734284 83.285775 -136.842164 -10.162801 -9.908674 0.024035 0.156657 -0.321986 0.056634 -6.636568 -76.079231 21.697657 90.222573 76.572451 88.847640 -11.072350 -7.716088 0.185870 0.039868 0.342305 0.023694
